<svg xmlns="http://www.w3.org/2000/svg" viewBox="0 0 35 35"><path d="M3 3h7v7h-7zM11 3h1v1h-1zM13 3h2v1h-2zM17 3h1v1h-1zM22 3h1v1h-1zM25 3h7v7h-7zM4 4v5h5v-5zM12 4h1v1h-1zM21 4h1v1h1v-1h1v3h-1v-1h-1v2h-1v-2h-1v-1h1zM26 4v5h5v-5zM5 5h3v3h-3zM11 5h1v2h-1zM14 5h3v1h-1v5h-2v2h-1v-1h-1v2h2v1h-2v1h-3v-1h1v-1h1v-1h-1v-1h-1v1h1v1h-2v-1h-1v-1h1v-1h3v-3h4v-1h-1zM18 5h1v1h1v2h-1v-1h-2v-1h1zM27 5h3v3h-3zM18 8h1v1h-1zM20 8h1v1h-1zM22 8h2v3h-1v1h1v-1h3v1h-1v1h2v1h-2v2h-1v-2h-3v1h-1v-2h1v-3h1v-1h-1zM12 9v1h1v-1zM14 9v1h1v-1zM17 9h1v2h-1zM19 9h1v1h-1zM21 9h1v1h-1zM20 10h1v1h-1zM4 11h1v1h-1zM6 11h1v1h-1zM16 11h1v1h1v-1h2v1h1v1h-1v2h1v6h-1v1h-2v-1h-1v1h-1v-2h1v-1h2v1h1v-1h-1v-2h1v-1h-1v1h-1v-3h1v-1h-1v1h-2v-1h-1v-1h1zM28 11h2v1h-1v1h-1zM31 11h1v2h-1zM3 12h1v2h-1zM5 12h1v3h-2v-1h1zM14 13h1v1h-1zM30 13h1v2h-2v-1h1zM7 14h1v2h1v1h1v1h-2v1h-2v-1h-1v-1h1v-1h1zM15 14h1v1h1v2h-2zM22 15h2v1h-1v1h-1zM3 16h2v1h-1v1h-1zM12 16h2v1h-2zM24 16h1v1h1v-1h1v2h1v1h-2v-1h-1v2h2v2h-1v-1h-1v1h-1v-2h-1v-1h1zM28 16h1v1h-1zM30 16h1v1h1v5h-2zM14 17h1v1h1v2h-1v-1h-1zM17 17h1v1h-1zM4 18h1v1h1v1h3v1h2v-1h1v-1h2v1h-1v1h-1v1h-1v1h-1v-1h-1v1h1v1h-2v-1h-3v-1h3v-1h-4zM11 18h1v1h-1zM22 18h1v1h-1zM9 19h1v1h-1zM3 21h1v1h-1zM14 21h1v2h-1v2h-1v1h-1v1h-1v-4h2v-1h1zM21 21h1v2h-2v-1h1zM28 21h1v2h-1v2h2v1h2v1h-1v1h-1v-1h-1v-1h-1v1h1v1h1v1h-1v3h-2v-1h1v-1h-1v1h-2v-1h1v-1h1v-1h-1v1h-1v-1h-1v1h1v1h-1v1h1v1h-2v-1h-2v1h-1v-2h3v-6h-1v-1h5v-1h1zM3 23h1v1h-1zM15 23h2v1h-2zM18 23h2v1h2v1h-2v1h-1v-2h-1zM29 23h2v1h1v1h-2v-1h-1zM17 24h1v1h-1zM24 24v3h3v-3zM3 25h7v7h-7zM15 25h1v2h-1zM25 25h1v1h-1zM4 26v5h5v-5zM13 26h1v1h1v1h-2v1h1v1h-2v-1h-1v-1h1v-1h1zM17 26h2v1h-2zM21 26h1v1h-1zM5 27h3v3h-3zM16 27h1v1h-1zM19 27h2v1h1v1h-2v1h-1v-1h-1v-1h1zM31 28h1v2h-1zM15 29h1v2h1v1h-2v-1h-1v-1h1zM17 29h1v2h-1zM11 30h1v1h-1zM30 30h1v2h-1zM12 31h2v1h-2z"/></svg>